<svg xmlns="http://www.w3.org/2000/svg" viewBox="0 0 400 300">
  <rect width="400" height="300" fill="#eef2f5"/>
  <rect x="0" y="230" width="400" height="70" fill="#dfe5ea"/>
  <rect x="0" y="225" width="400" height="6" fill="#c7cfd6"/>
  <g stroke="#1b3a5c" stroke-width="7" fill="none">
    <line x1="120" y1="240" x2="120" y2="80"/>
    <line x1="200" y1="240" x2="200" y2="80"/>
    <line x1="280" y1="240" x2="280" y2="80"/>
    <line x1="120" y1="120" x2="280" y2="120"/>
    <line x1="120" y1="170" x2="280" y2="170"/>
    <line x1="120" y1="220" x2="280" y2="220"/>
    <line x1="120" y1="120" x2="200" y2="170"/>
    <line x1="200" y1="120" x2="280" y2="170"/>
    <line x1="120" y1="170" x2="200" y2="220"/>
    <line x1="200" y1="170" x2="280" y2="220"/>
  </g>
  <circle cx="120" cy="80" r="7" fill="#f5a623"/>
  <circle cx="200" cy="80" r="7" fill="#f5a623"/>
  <circle cx="280" cy="80" r="7" fill="#f5a623"/>
  <text x="200" y="288" text-anchor="middle" font-family="Arial, sans-serif" font-size="14" fill="#5b6169">Scaffolding</text>
</svg>
